<svg id="Group_340" data-name="Group 340" xmlns="http://www.w3.org/2000/svg" width="32.632" height="49.379" viewBox="0 0 32.632 49.379">
  <defs>
    <style>
      .cls-1 {
        fill: #f3c261;
      }
    </style>
  </defs>
  <path id="Line_51" data-name="Line 51" class="cls-1" d="M5.1,2.549V45.81a2.549,2.549,0,1,1-5.1,0V2.549a2.549,2.549,0,1,1,5.1,0Z" transform="translate(14.276 1.02)"/>
  <path id="Line_52" data-name="Line 52" class="cls-1" d="M19.375,2.549a2.553,2.553,0,0,1-.187.959,2.53,2.53,0,0,1-.233.443,2.561,2.561,0,0,1-.327.4L4.352,18.628A2.549,2.549,0,1,1,.747,15.023L15.023.747a2.549,2.549,0,0,1,4.352,1.8Z"/>
  <path id="Line_53" data-name="Line 53" class="cls-1" d="M16.316,14.786a2.556,2.556,0,0,1-.208,1.01,2.53,2.53,0,0,1-.258.461,2.548,2.548,0,0,1-3.963.252L.67,4.272A2.549,2.549,0,1,1,4.429.827L15.646,13.064a2.562,2.562,0,0,1,.294.389,2.534,2.534,0,0,1,.335.873A2.559,2.559,0,0,1,16.316,14.786Z" transform="translate(16.316 1.02)"/>
</svg>
