<svg xmlns="http://www.w3.org/2000/svg" width="49" height="24" viewBox="0 0 49 24">
  <defs>
    <style>
      .cls-1 {
        fill: #fff;
      }
    </style>
  </defs>
  <g id="Group_184" data-name="Group 184" transform="translate(-1678 -813)">
    <path id="Line_51" data-name="Line 51" class="cls-1" d="M43,2.5H0A2.5,2.5,0,0,1-2.5,0,2.5,2.5,0,0,1,0-2.5H43A2.5,2.5,0,0,1,45.5,0,2.5,2.5,0,0,1,43,2.5Z" transform="translate(1680.5 825.5)"/>
    <path id="Line_52" data-name="Line 52" class="cls-1" d="M10,12.5a2.492,2.492,0,0,1-1.768-.732l-10-10a2.5,2.5,0,0,1,0-3.536,2.5,2.5,0,0,1,3.536,0l10,10A2.5,2.5,0,0,1,10,12.5Z" transform="translate(1714.5 815.5)"/>
    <path id="Line_53" data-name="Line 53" class="cls-1" d="M0,10.5a2.492,2.492,0,0,1-1.768-.732,2.5,2.5,0,0,1,0-3.536l8-8a2.5,2.5,0,0,1,3.536,0,2.5,2.5,0,0,1,0,3.536l-8,8A2.492,2.492,0,0,1,0,10.5Z" transform="translate(1715.5 826.5)"/>
  </g>
</svg>
