<svg id="Group_339" data-name="Group 339" xmlns="http://www.w3.org/2000/svg" width="32.632" height="49.379" viewBox="0 0 32.632 49.379">
  <defs>
    <style>
      .cls-1 {
        fill: #f3c261;
      }
    </style>
  </defs>
  <path id="Line_51" data-name="Line 51" class="cls-1" d="M0,45.81V2.549a2.549,2.549,0,1,1,5.1,0V45.81a2.549,2.549,0,1,1-5.1,0Z" transform="translate(13.257)"/>
  <path id="Line_52" data-name="Line 52" class="cls-1" d="M0,16.826a2.553,2.553,0,0,1,.187-.959,2.53,2.53,0,0,1,.233-.443,2.561,2.561,0,0,1,.327-.4L15.023.747a2.549,2.549,0,1,1,3.605,3.605L4.352,18.628A2.549,2.549,0,0,1,0,16.826Z" transform="translate(13.257 30.004)"/>
  <path id="Line_53" data-name="Line 53" class="cls-1" d="M0,2.55A2.556,2.556,0,0,1,.208,1.54a2.53,2.53,0,0,1,.258-.461A2.548,2.548,0,0,1,4.429.827L15.646,13.064a2.549,2.549,0,1,1-3.759,3.445L.67,4.272a2.562,2.562,0,0,1-.294-.389A2.534,2.534,0,0,1,.042,3.01,2.559,2.559,0,0,1,0,2.55Z" transform="translate(0 31.023)"/>
</svg>
